<?xml version="1.0" encoding="utf-8"?>
<!-- Generator: Adobe Illustrator 16.0.0, SVG Export Plug-In . SVG Version: 6.00 Build 0)  -->
<!DOCTYPE svg PUBLIC "-//W3C//DTD SVG 1.1//EN" "http://www.w3.org/Graphics/SVG/1.1/DTD/svg11.dtd">
<svg version="1.1" id="Layer_1" xmlns="http://www.w3.org/2000/svg" xmlns:xlink="http://www.w3.org/1999/xlink" x="0px" y="0px"
	 width="53.556px" height="49.315px" viewBox="18.944 394.135 53.556 49.315" enable-background="new 18.944 394.135 53.556 49.315"
	 xml:space="preserve">
<path fill="#FFFFFF" d="M65.498,407.056H27.54l-0.564-6.287c-0.093-1.028-0.954-1.815-1.986-1.815h-4.05
	c-1.102,0-1.994,0.894-1.994,1.994c0,1.102,0.893,1.993,1.994,1.993h2.228c1.217,13.566-1.93-21.496,2.293,25.549
	c0.163,1.841,1.158,3.839,2.872,5.196c-3.09,3.947-0.267,9.765,4.76,9.765c4.172,0,7.115-4.161,5.684-8.103h10.912
	c-1.429,3.937,1.508,8.103,5.684,8.103c3.333,0,6.045-2.712,6.045-6.045s-2.712-6.044-6.045-6.044H33.104
	c-1.514,0-2.834-0.914-3.404-2.246l31.864-1.872c0.87-0.052,1.606-0.661,1.817-1.507l4.052-16.204
	C67.747,408.275,66.796,407.056,65.498,407.056z M33.091,439.462c-1.134,0-2.057-0.922-2.057-2.057c0-1.134,0.923-2.058,2.057-2.058
	s2.057,0.924,2.057,2.058C35.148,438.54,34.225,439.462,33.091,439.462z M55.371,439.462c-1.134,0-2.057-0.922-2.057-2.057
	c0-1.134,0.923-2.058,2.057-2.058c1.135,0,2.057,0.924,2.057,2.058C57.428,438.54,56.505,439.462,55.371,439.462z M59.868,423.349
	l-30.705,1.804l-1.267-14.11h35.047L59.868,423.349z"/>
</svg>
